# xmcd
#
# Track frame offsets: 
#        150
#        12082
#        24827
#        38717
#        50862
#        62920
#        75727
#        88005
#        101385
#        115000
#        129075
#        141565
#        153207
#        165325
#        178925
#        191247
#        203877
#        216295
#        228432
#        241390
#        252272
#
# Disc length: 3570 seconds
#
# Revision: 5
# Processed by: cddbd v1.5.2PL0 Copyright (c) Steve Scherf et al.
# Submitted via: ExactAudioCopy v1.1
#
DISCID=1b0df015
DTITLE=Various Artist - Good Time Blues
DYEAR=1991
DGENRE=Blues
TTITLE0=The Mississippi Jook Band - Hittin' The Bottle Stomp (mono)
TTITLE1=The Mississippi Jook Band - Skippy Whippy (mono)
TTITLE2=The Memphis Jug Band - Mary Anna Cut Off (mono)
TTITLE3=The Memphis Jug Band - Gator Wobble (mono)
TTITLE4=Son Becky - Mistreated Washboard Blues (mono)
TTITLE5=Charlie Burse and His Memphis Mudcats - Baby You Win (mono)
TTITLE6=Charlie Burse and His Memphis Mudcats - Oil It Up And Go (mono)
TTITLE7=The Georgia Browns - Tampa Strut (mono)
TTITLE8=The Georgia Cotton Pickers - Diddle-Da-Diddle (mono)
TTITLE9=The Georgia Cotton Pickers - She's Coming Back Some Cold Rainy
TTITLE9=Day (mono)
TTITLE10=Big Joe and His Washboard Band (Joe McCoy) - If You Take Me Bac
TTITLE10=k (mono)
TTITLE11=Big Joe and His Washboard Band (Joe McCoy) - I'm Through With Y
TTITLE11=ou (mono)
TTITLE12=Big Joe and His Washboard Band (Joe McCoy) - When You Said Good
TTITLE12=bye (mono)
TTITLE13=Big Joe and His Washboard Band (Joe McCoy) - I Love You Baby (m
TTITLE13=ono)
TTITLE14=Buddy Moss - Struggle Buggie (mono)
TTITLE15=Buddy Moss - I'm Sittin' Here Tonight (mono)
TTITLE16=The Mississippi Jook Band - Dangerous Woman (mono)
TTITLE17=The Mississippi Jook Band - Barbecue Bust (mono)
TTITLE18=Peter Chatman and His Washboard Band - Diggin' My Potatoes No.2
TTITLE18=(mono)
TTITLE19=Sonny Terry and Jordan Webb - Touch It Up And Go (mono)
TTITLE20=Bernice Edwards - Ninth Street Stomp (mono)
EXTD=YEAR: 1991 ID3G: 0
EXTT0=
EXTT1=
EXTT2=
EXTT3=
EXTT4=
EXTT5=
EXTT6=
EXTT7=
EXTT8=
EXTT9=
EXTT10=
EXTT11=
EXTT12=
EXTT13=
EXTT14=
EXTT15=
EXTT16=
EXTT17=
EXTT18=
EXTT19=
EXTT20=
PLAYORDER=
